<mxfile host="app.diagrams.net" modified="2022-03-19T08:02:32.793Z" agent="5.0 (Macintosh; Intel Mac OS X 10_15_7) AppleWebKit/537.36 (KHTML, like Gecko) Chrome/99.0.4844.51 Safari/537.36" etag="PSvPI52XpG6NsXnAV5S6" version="17.1.3" type="github">
  <diagram id="xXfyua9_VMPZ3oIZuOAJ" name="Page-1">
    <mxGraphModel dx="1720" dy="975" grid="1" gridSize="10" guides="1" tooltips="1" connect="1" arrows="1" fold="1" page="1" pageScale="1" pageWidth="1169" pageHeight="827" math="0" shadow="0">
      <root>
        <mxCell id="0" />
        <mxCell id="1" parent="0" />
        <mxCell id="NaWxdDiv04shD6p3vSGv-10" value="" style="edgeStyle=orthogonalEdgeStyle;rounded=0;orthogonalLoop=1;jettySize=auto;html=1;" edge="1" parent="1" source="LccgevMRxcLiaLM2jQEp-8" target="NaWxdDiv04shD6p3vSGv-9">
          <mxGeometry relative="1" as="geometry">
            <Array as="points">
              <mxPoint x="374" y="310" />
              <mxPoint x="464" y="310" />
            </Array>
          </mxGeometry>
        </mxCell>
        <mxCell id="NaWxdDiv04shD6p3vSGv-9" value="" style="shape=waypoint;sketch=0;size=6;pointerEvents=1;points=[];fillColor=#CCCCCC;resizable=0;rotatable=0;perimeter=centerPerimeter;snapToPoint=1;verticalAlign=top;strokeColor=#6881B3;fontColor=#0066CC;gradientColor=none;gradientDirection=north;strokeWidth=2;" vertex="1" parent="1">
          <mxGeometry x="444" y="220" width="40" height="40" as="geometry" />
        </mxCell>
        <mxCell id="NaWxdDiv04shD6p3vSGv-1" value="" style="shape=waypoint;sketch=0;size=6;pointerEvents=1;points=[];fillColor=#CCCCCC;resizable=0;rotatable=0;perimeter=centerPerimeter;snapToPoint=1;verticalAlign=top;strokeColor=#6881B3;fontColor=#0066CC;gradientColor=none;gradientDirection=north;strokeWidth=2;" vertex="1" parent="1">
          <mxGeometry x="584" y="365" width="40" height="40" as="geometry" />
        </mxCell>
        <mxCell id="NaWxdDiv04shD6p3vSGv-5" value="" style="shape=waypoint;sketch=0;size=6;pointerEvents=1;points=[];fillColor=#CCCCCC;resizable=0;rotatable=0;perimeter=centerPerimeter;snapToPoint=1;verticalAlign=top;strokeColor=#6881B3;fontColor=#0066CC;gradientColor=none;gradientDirection=north;strokeWidth=2;" vertex="1" parent="1">
          <mxGeometry x="584" y="365" width="40" height="40" as="geometry" />
        </mxCell>
        <mxCell id="NaWxdDiv04shD6p3vSGv-7" value="" style="shape=waypoint;sketch=0;size=6;pointerEvents=1;points=[];fillColor=#CCCCCC;resizable=0;rotatable=0;perimeter=centerPerimeter;snapToPoint=1;verticalAlign=top;strokeColor=#6881B3;dashed=0;strokeWidth=2;" vertex="1" parent="1">
          <mxGeometry x="324" y="495" width="40" height="40" as="geometry" />
        </mxCell>
        <mxCell id="NaWxdDiv04shD6p3vSGv-8" value="" style="edgeStyle=orthogonalEdgeStyle;rounded=0;orthogonalLoop=1;jettySize=auto;html=1;" edge="1" parent="1" source="LccgevMRxcLiaLM2jQEp-11" target="NaWxdDiv04shD6p3vSGv-7">
          <mxGeometry relative="1" as="geometry">
            <Array as="points">
              <mxPoint x="254" y="310" />
              <mxPoint x="344" y="310" />
            </Array>
          </mxGeometry>
        </mxCell>
        <mxCell id="NaWxdDiv04shD6p3vSGv-4" value="" style="edgeStyle=orthogonalEdgeStyle;rounded=0;orthogonalLoop=1;jettySize=auto;html=1;" edge="1" parent="1" source="LccgevMRxcLiaLM2jQEp-9">
          <mxGeometry relative="1" as="geometry">
            <mxPoint x="804" y="560" as="targetPoint" />
            <Array as="points">
              <mxPoint x="654" y="470" />
              <mxPoint x="804" y="470" />
            </Array>
          </mxGeometry>
        </mxCell>
        <mxCell id="LccgevMRxcLiaLM2jQEp-6" value="" style="fontColor=#0066CC;verticalAlign=top;verticalLabelPosition=bottom;labelPosition=center;align=center;html=1;outlineConnect=0;fillColor=#CCCCCC;strokeColor=#6881B3;gradientColor=none;gradientDirection=north;strokeWidth=2;shape=mxgraph.networks.laptop;" parent="1" vertex="1">
          <mxGeometry x="754" y="540" width="100" height="55" as="geometry" />
        </mxCell>
        <mxCell id="NaWxdDiv04shD6p3vSGv-2" value="" style="edgeStyle=orthogonalEdgeStyle;rounded=0;orthogonalLoop=1;jettySize=auto;html=1;exitX=0.5;exitY=1;exitDx=0;exitDy=0;exitPerimeter=0;" edge="1" parent="1" source="LccgevMRxcLiaLM2jQEp-7" target="NaWxdDiv04shD6p3vSGv-1">
          <mxGeometry relative="1" as="geometry">
            <Array as="points">
              <mxPoint x="494" y="250" />
              <mxPoint x="494" y="310" />
              <mxPoint x="604" y="310" />
            </Array>
          </mxGeometry>
        </mxCell>
        <mxCell id="LccgevMRxcLiaLM2jQEp-7" value="" style="fontColor=#0066CC;verticalAlign=top;verticalLabelPosition=bottom;labelPosition=center;align=center;html=1;outlineConnect=0;fillColor=#CCCCCC;strokeColor=#6881B3;gradientColor=none;gradientDirection=north;strokeWidth=2;shape=mxgraph.networks.hub;" parent="1" vertex="1">
          <mxGeometry x="431" y="220" width="100" height="30" as="geometry" />
        </mxCell>
        <mxCell id="NaWxdDiv04shD6p3vSGv-6" value="" style="edgeStyle=orthogonalEdgeStyle;rounded=0;orthogonalLoop=1;jettySize=auto;html=1;exitX=1;exitY=0.5;exitDx=0;exitDy=0;exitPerimeter=0;" edge="1" parent="1" source="LccgevMRxcLiaLM2jQEp-8" target="NaWxdDiv04shD6p3vSGv-5">
          <mxGeometry relative="1" as="geometry">
            <Array as="points">
              <mxPoint x="404" y="515" />
              <mxPoint x="404" y="480" />
              <mxPoint x="604" y="480" />
            </Array>
          </mxGeometry>
        </mxCell>
        <mxCell id="LccgevMRxcLiaLM2jQEp-8" value="" style="fontColor=#0066CC;verticalAlign=top;verticalLabelPosition=bottom;labelPosition=center;align=center;html=1;outlineConnect=0;fillColor=#CCCCCC;strokeColor=#6881B3;gradientColor=none;gradientDirection=north;strokeWidth=2;shape=mxgraph.networks.router;" parent="1" vertex="1">
          <mxGeometry x="324" y="500" width="100" height="30" as="geometry" />
        </mxCell>
        <mxCell id="LccgevMRxcLiaLM2jQEp-9" value="" style="fontColor=#0066CC;verticalAlign=top;verticalLabelPosition=bottom;labelPosition=center;align=center;html=1;outlineConnect=0;fillColor=#CCCCCC;strokeColor=#6881B3;gradientColor=none;gradientDirection=north;strokeWidth=2;shape=mxgraph.networks.wireless_hub;" parent="1" vertex="1">
          <mxGeometry x="584" y="320" width="100" height="85" as="geometry" />
        </mxCell>
        <mxCell id="LccgevMRxcLiaLM2jQEp-11" value="" style="verticalLabelPosition=bottom;outlineConnect=0;align=center;dashed=0;html=1;verticalAlign=top;shape=mxgraph.pid2misc.column;columnType=fluid;strokeColor=#6881B3;fillColor=#CCCCCC;strokeWidth=2;" parent="1" vertex="1">
          <mxGeometry x="224" y="197.5" width="50" height="75" as="geometry" />
        </mxCell>
        <mxCell id="NaWxdDiv04shD6p3vSGv-3" value="" style="shape=waypoint;sketch=0;size=6;pointerEvents=1;points=[];fillColor=#CCCCCC;resizable=0;rotatable=0;perimeter=centerPerimeter;snapToPoint=1;verticalAlign=top;strokeColor=#6881B3;fontColor=#0066CC;gradientColor=none;gradientDirection=north;strokeWidth=2;" vertex="1" parent="1">
          <mxGeometry x="784" y="570" width="40" height="40" as="geometry" />
        </mxCell>
        <mxCell id="NaWxdDiv04shD6p3vSGv-13" value="交换机" style="text;html=1;align=center;verticalAlign=middle;resizable=0;points=[];autosize=1;strokeColor=none;fillColor=none;" vertex="1" parent="1">
          <mxGeometry x="491" y="197.5" width="50" height="20" as="geometry" />
        </mxCell>
        <mxCell id="NaWxdDiv04shD6p3vSGv-14" value="cpe" style="text;html=1;align=center;verticalAlign=middle;resizable=0;points=[];autosize=1;strokeColor=none;fillColor=none;" vertex="1" parent="1">
          <mxGeometry x="244" y="180" width="40" height="20" as="geometry" />
        </mxCell>
        <mxCell id="NaWxdDiv04shD6p3vSGv-15" value="无线路由" style="text;html=1;align=center;verticalAlign=middle;resizable=0;points=[];autosize=1;strokeColor=none;fillColor=none;" vertex="1" parent="1">
          <mxGeometry x="654" y="352.5" width="60" height="20" as="geometry" />
        </mxCell>
        <mxCell id="NaWxdDiv04shD6p3vSGv-16" value="笔记本" style="text;html=1;align=center;verticalAlign=middle;resizable=0;points=[];autosize=1;strokeColor=none;fillColor=none;" vertex="1" parent="1">
          <mxGeometry x="804" y="515" width="50" height="20" as="geometry" />
        </mxCell>
        <mxCell id="NaWxdDiv04shD6p3vSGv-17" value="Openwrt" style="text;html=1;align=center;verticalAlign=middle;resizable=0;points=[];autosize=1;strokeColor=none;fillColor=none;" vertex="1" parent="1">
          <mxGeometry x="424" y="495" width="60" height="20" as="geometry" />
        </mxCell>
        <mxCell id="NaWxdDiv04shD6p3vSGv-18" value="ip : 192.168.3.31&lt;br&gt;mask : 255.255.255.0&lt;br&gt;gateway : 192.168.3.251" style="text;html=1;align=left;verticalAlign=middle;resizable=0;points=[];autosize=1;strokeColor=none;fillColor=none;" vertex="1" parent="1">
          <mxGeometry x="858" y="540" width="150" height="50" as="geometry" />
        </mxCell>
        <mxCell id="NaWxdDiv04shD6p3vSGv-19" value="LAN" style="text;html=1;align=center;verticalAlign=middle;resizable=0;points=[];autosize=1;strokeColor=none;fillColor=none;" vertex="1" parent="1">
          <mxGeometry x="544" y="405" width="40" height="20" as="geometry" />
        </mxCell>
        <mxCell id="NaWxdDiv04shD6p3vSGv-20" value="LAN" style="text;html=1;align=center;verticalAlign=middle;resizable=0;points=[];autosize=1;strokeColor=none;fillColor=none;" vertex="1" parent="1">
          <mxGeometry x="654" y="405" width="40" height="20" as="geometry" />
        </mxCell>
        <mxCell id="NaWxdDiv04shD6p3vSGv-21" value="WAN" style="text;html=1;align=center;verticalAlign=middle;resizable=0;points=[];autosize=1;strokeColor=none;fillColor=none;" vertex="1" parent="1">
          <mxGeometry x="564" y="352.5" width="40" height="20" as="geometry" />
        </mxCell>
        <mxCell id="NaWxdDiv04shD6p3vSGv-22" value="LAN" style="text;html=1;align=center;verticalAlign=middle;resizable=0;points=[];autosize=1;strokeColor=none;fillColor=none;" vertex="1" parent="1">
          <mxGeometry x="401" y="480" width="40" height="20" as="geometry" />
        </mxCell>
        <mxCell id="NaWxdDiv04shD6p3vSGv-23" value="WAN" style="text;html=1;align=center;verticalAlign=middle;resizable=0;points=[];autosize=1;strokeColor=none;fillColor=none;" vertex="1" parent="1">
          <mxGeometry x="293" y="480" width="40" height="20" as="geometry" />
        </mxCell>
        <mxCell id="NaWxdDiv04shD6p3vSGv-25" value="WAN" style="text;html=1;align=center;verticalAlign=middle;resizable=0;points=[];autosize=1;strokeColor=none;fillColor=none;" vertex="1" parent="1">
          <mxGeometry x="341" y="480" width="40" height="20" as="geometry" />
        </mxCell>
        <mxCell id="NaWxdDiv04shD6p3vSGv-27" value="ip : 10.1.80.251&lt;br&gt;mask : 255.255.255.0&lt;br&gt;gateway : 10.1.80.1" style="text;html=1;align=left;verticalAlign=middle;resizable=0;points=[];autosize=1;strokeColor=none;fillColor=none;" vertex="1" parent="1">
          <mxGeometry x="698" y="365" width="130" height="50" as="geometry" />
        </mxCell>
        <mxCell id="NaWxdDiv04shD6p3vSGv-28" value="192.168.8.1" style="text;html=1;align=center;verticalAlign=middle;resizable=0;points=[];autosize=1;strokeColor=none;fillColor=none;" vertex="1" parent="1">
          <mxGeometry x="274" y="225" width="80" height="20" as="geometry" />
        </mxCell>
        <mxCell id="NaWxdDiv04shD6p3vSGv-29" value="10.1.80.1" style="text;html=1;align=center;verticalAlign=middle;resizable=0;points=[];autosize=1;strokeColor=none;fillColor=none;" vertex="1" parent="1">
          <mxGeometry x="536" y="225" width="70" height="20" as="geometry" />
        </mxCell>
        <mxCell id="NaWxdDiv04shD6p3vSGv-30" value="192.168.3.1" style="text;html=1;align=center;verticalAlign=middle;resizable=0;points=[];autosize=1;strokeColor=none;fillColor=none;" vertex="1" parent="1">
          <mxGeometry x="814" y="380" width="80" height="20" as="geometry" />
        </mxCell>
        <mxCell id="NaWxdDiv04shD6p3vSGv-31" value="192.168.3.251" style="text;html=1;align=center;verticalAlign=middle;resizable=0;points=[];autosize=1;strokeColor=none;fillColor=none;" vertex="1" parent="1">
          <mxGeometry x="424" y="515" width="90" height="20" as="geometry" />
        </mxCell>
        <mxCell id="NaWxdDiv04shD6p3vSGv-32" value="" style="edgeStyle=orthogonalEdgeStyle;rounded=1;orthogonalLoop=1;jettySize=auto;html=1;endArrow=open;endFill=0;startArrow=open;startFill=0;strokeWidth=3;fillColor=#6a00ff;strokeColor=#3700CC;" edge="1" parent="1" source="LccgevMRxcLiaLM2jQEp-9" target="LccgevMRxcLiaLM2jQEp-6">
          <mxGeometry relative="1" as="geometry">
            <mxPoint x="644" y="410" as="sourcePoint" />
            <mxPoint x="814" y="570" as="targetPoint" />
            <Array as="points">
              <mxPoint x="644" y="480" />
              <mxPoint x="794" y="480" />
            </Array>
          </mxGeometry>
        </mxCell>
        <mxCell id="NaWxdDiv04shD6p3vSGv-33" value="" style="edgeStyle=orthogonalEdgeStyle;rounded=1;orthogonalLoop=1;jettySize=auto;html=1;startArrow=open;startFill=0;endArrow=open;endFill=0;fillColor=#0050ef;strokeColor=#001DBC;strokeWidth=3;" edge="1" parent="1" source="LccgevMRxcLiaLM2jQEp-8" target="LccgevMRxcLiaLM2jQEp-9">
          <mxGeometry relative="1" as="geometry">
            <mxPoint x="396" y="502.5" as="sourcePoint" />
            <mxPoint x="596" y="410" as="targetPoint" />
            <Array as="points">
              <mxPoint x="394" y="470" />
              <mxPoint x="594" y="470" />
            </Array>
          </mxGeometry>
        </mxCell>
        <mxCell id="NaWxdDiv04shD6p3vSGv-34" value="" style="edgeStyle=orthogonalEdgeStyle;rounded=1;orthogonalLoop=1;jettySize=auto;html=1;startArrow=open;startFill=0;endArrow=open;endFill=0;fillColor=#6a00ff;strokeColor=#3700CC;strokeWidth=3;" edge="1" parent="1">
          <mxGeometry relative="1" as="geometry">
            <mxPoint x="384" y="500" as="sourcePoint" />
            <mxPoint x="474" y="250" as="targetPoint" />
            <Array as="points">
              <mxPoint x="384" y="320" />
              <mxPoint x="474" y="320" />
            </Array>
          </mxGeometry>
        </mxCell>
        <mxCell id="NaWxdDiv04shD6p3vSGv-35" value="" style="edgeStyle=orthogonalEdgeStyle;orthogonalLoop=1;jettySize=auto;html=1;startArrow=open;startFill=0;endArrow=open;endFill=0;fillColor=#6a00ff;strokeColor=#3700CC;rounded=1;strokeWidth=3;" edge="1" parent="1" source="LccgevMRxcLiaLM2jQEp-11" target="LccgevMRxcLiaLM2jQEp-8">
          <mxGeometry relative="1" as="geometry">
            <mxPoint x="234" y="280" as="sourcePoint" />
            <mxPoint x="324" y="521" as="targetPoint" />
            <Array as="points">
              <mxPoint x="244" y="320" />
              <mxPoint x="334" y="320" />
            </Array>
          </mxGeometry>
        </mxCell>
        <mxCell id="NaWxdDiv04shD6p3vSGv-36" value="LAN" style="text;html=1;align=center;verticalAlign=middle;resizable=0;points=[];autosize=1;strokeColor=none;fillColor=none;" vertex="1" parent="1">
          <mxGeometry x="423" y="250" width="40" height="20" as="geometry" />
        </mxCell>
        <mxCell id="NaWxdDiv04shD6p3vSGv-37" value="LAN" style="text;html=1;align=center;verticalAlign=middle;resizable=0;points=[];autosize=1;strokeColor=none;fillColor=none;" vertex="1" parent="1">
          <mxGeometry x="496" y="250" width="40" height="20" as="geometry" />
        </mxCell>
        <mxCell id="NaWxdDiv04shD6p3vSGv-38" value="LAN" style="text;html=1;align=center;verticalAlign=middle;resizable=0;points=[];autosize=1;strokeColor=none;fillColor=none;" vertex="1" parent="1">
          <mxGeometry x="253" y="272.5" width="40" height="20" as="geometry" />
        </mxCell>
        <mxCell id="NaWxdDiv04shD6p3vSGv-39" value="外网" style="text;html=1;align=center;verticalAlign=middle;resizable=0;points=[];autosize=1;strokeColor=none;fillColor=none;" vertex="1" parent="1">
          <mxGeometry x="204" y="177.5" width="40" height="20" as="geometry" />
        </mxCell>
        <mxCell id="NaWxdDiv04shD6p3vSGv-40" value="内网" style="text;html=1;align=center;verticalAlign=middle;resizable=0;points=[];autosize=1;strokeColor=none;fillColor=none;" vertex="1" parent="1">
          <mxGeometry x="424" y="197.5" width="40" height="20" as="geometry" />
        </mxCell>
      </root>
    </mxGraphModel>
  </diagram>
</mxfile>
